<svg width="22" height="22" viewBox="0 0 22 22" fill="none" xmlns="http://www.w3.org/2000/svg">
<path fill-rule="evenodd" clip-rule="evenodd" d="M12.0092 1.00922C12.0092 0.451844 11.5574 0 11 0C10.4426 0 9.99077 0.451843 9.99077 1.00922V9.99078H1.00922C0.451843 9.99078 0 10.4426 0 11C0 11.5574 0.451844 12.0092 1.00922 12.0092H9.99077V20.9908C9.99077 21.5482 10.4426 22 11 22C11.5574 22 12.0092 21.5482 12.0092 20.9908V12.0092H20.9908C21.5482 12.0092 22 11.5574 22 11C22 10.4426 21.5482 9.99078 20.9908 9.99078H12.0092V1.00922Z" fill="white"/>
</svg>
