<svg width="18" height="18" viewBox="0 0 18 18" fill="none" xmlns="http://www.w3.org/2000/svg">
<path fill-rule="evenodd" clip-rule="evenodd" d="M2 2V6H6V2H2ZM1 0C0.447715 0 0 0.447715 0 1V7C0 7.55228 0.447715 8 1 8H7C7.55228 8 8 7.55228 8 7V1C8 0.447715 7.55228 0 7 0H1Z" fill="white"/>
<path d="M0 11C0 10.4477 0.447715 10 1 10H7C7.55228 10 8 10.4477 8 11V17C8 17.5523 7.55228 18 7 18H1C0.447715 18 0 17.5523 0 17V11Z" fill="white"/>
<path d="M10 1C10 0.447715 10.4477 0 11 0H17C17.5523 0 18 0.447715 18 1V7C18 7.55228 17.5523 8 17 8H11C10.4477 8 10 7.55228 10 7V1Z" fill="white"/>
<path fill-rule="evenodd" clip-rule="evenodd" d="M12 12V16H16V12H12ZM11 10C10.4477 10 10 10.4477 10 11V17C10 17.5523 10.4477 18 11 18H17C17.5523 18 18 17.5523 18 17V11C18 10.4477 17.5523 10 17 10H11Z" fill="white"/>
</svg>
