<svg width="25" height="24" viewBox="0 0 25 24" fill="none" xmlns="http://www.w3.org/2000/svg">
<path fill-rule="evenodd" clip-rule="evenodd" d="M10.7034 2.82834C11.4907 2.04729 12.7673 2.04729 13.5546 2.82834L22.5049 11.707C22.8986 12.0975 23.5368 12.0975 23.9305 11.707C24.3242 11.3165 24.3242 10.6833 23.9305 10.2928L14.9802 1.41413C13.4055 -0.147973 10.8525 -0.147969 9.27776 1.41413L0.327482 10.2928C-0.0661919 10.6833 -0.0661919 11.3165 0.327482 11.707C0.721155 12.0975 1.35943 12.0975 1.7531 11.707L10.7034 2.82834ZM5.07255 12.9999C5.07255 12.4476 4.62122 11.9999 4.06448 11.9999C3.50775 11.9999 3.05642 12.4476 3.05642 12.9999V20.9999C3.05642 22.6567 4.4104 23.9999 6.08061 23.9999H18.1774C19.8476 23.9999 21.2016 22.6567 21.2016 20.9999V12.9999C21.2016 12.4476 20.7503 11.9999 20.1935 11.9999C19.6368 11.9999 19.1855 12.4476 19.1855 12.9999V20.9999C19.1855 21.5522 18.7341 21.9999 18.1774 21.9999H6.08061C5.52388 21.9999 5.07255 21.5522 5.07255 20.9999V12.9999Z" fill="#150C00" fill-opacity="0.5"/>
</svg>
