<svg width="16" height="28" viewBox="0 0 16 28" fill="none" xmlns="http://www.w3.org/2000/svg">
<path d="M16 0C15.4477 0 15 0.447715 15 1C15 1.55228 15.4477 2 16 2H17C17.5523 2 18 2.44772 18 3V25C18 25.5523 17.5523 26 17 26H3C2.44772 26 2 25.5523 2 25V16C2 15.4477 1.55228 15 1 15C0.447715 15 0 15.4477 0 16V25C0 26.6569 1.34315 28 3 28H17C18.6569 28 20 26.6569 20 25V3C20 1.34315 18.6569 0 17 0H16Z" fill="#150C00"/>
<path fill-rule="evenodd" clip-rule="evenodd" d="M7.5 15C11.6421 15 15 11.6421 15 7.5C15 3.35786 11.6421 0 7.5 0C3.35786 0 0 3.35786 0 7.5C0 11.6421 3.35786 15 7.5 15ZM6.5625 11.9455C6.5625 12.3387 6.69915 12.6929 6.92337 12.9701C4.15682 12.6819 2 10.3428 2 7.5C2 7.05311 2.0533 6.61866 2.15389 6.20267L2.16842 6.22329L3.75 8.4375L4.875 9.9375C5.05205 10.1736 5.32992 10.3125 5.625 10.3125C6.14277 10.3125 6.5625 10.7322 6.5625 11.25V11.9455ZM13 7.5C13 4.77309 11.0155 2.50968 8.41189 2.07525C8.42869 2.16216 8.4375 2.25193 8.4375 2.34375V2.8125C8.4375 3.33027 8.01777 3.75 7.5 3.75C6.98223 3.75 6.5625 4.16973 6.5625 4.6875C6.5625 5.20527 6.14277 5.625 5.625 5.625C5.10723 5.625 4.6875 6.04473 4.6875 6.5625C4.6875 7.08027 5.10723 7.5 5.625 7.5H7.5C8.53553 7.5 9.375 8.33947 9.375 9.375V10.3125C9.375 10.8303 9.79473 11.25 10.3125 11.25H10.3569C10.6697 11.25 10.945 11.4108 11.1045 11.6543C12.2657 10.6459 13 9.15871 13 7.5Z" fill="#150C00"/>
<path d="M4 23C4 22.4477 4.44772 22 5 22H15C15.5523 22 16 22.4477 16 23C16 23.5523 15.5523 24 15 24H5C4.44771 24 4 23.5523 4 23Z" fill="#150C00"/>
<path d="M5 18C4.44772 18 4 18.4477 4 19C4 19.5523 4.44771 20 5 20H15C15.5523 20 16 19.5523 16 19C16 18.4477 15.5523 18 15 18H5Z" fill="#150C00"/>
</svg>
