<svg width="26" height="20" viewBox="0 0 26 20" fill="none" xmlns="http://www.w3.org/2000/svg">
<path fill-rule="evenodd" clip-rule="evenodd" d="M23.8248 7.44105C24.2602 7.31466 24.713 7.24989 25.1695 7.24989H25.2257C25.6433 7.24989 25.9818 7.58567 25.9818 7.99989C25.9818 8.4141 25.6433 8.74989 25.2257 8.74989H25.1695C25.0888 8.74989 25.0083 8.75285 24.9281 8.75872C25.1204 9.16145 25.2257 9.6086 25.2257 10.0731V17.9999C25.2257 19.1045 24.3231 19.9999 23.2096 19.9999H22.0545C20.909 19.9999 19.8618 19.3579 19.3495 18.3415L19.1773 17.9999H7.08056L6.90836 18.3415C6.39609 19.3579 5.34892 19.9999 4.20344 19.9999H3.0483C1.93482 19.9999 1.03217 19.1045 1.03217 17.9999V10.7956C1.03217 10.0706 1.23477 9.38086 1.59449 8.78891C1.42755 8.76301 1.25834 8.74989 1.08835 8.74989H1.03217C0.614617 8.74989 0.276123 8.4141 0.276123 7.99989C0.276123 7.58567 0.614617 7.24989 1.03217 7.24989H1.08835C1.54493 7.24989 1.99766 7.31466 2.43309 7.44105L3.57547 2.9081C3.86748 1.74938 4.82456 0.872878 6.01219 0.676523L6.49996 0.595879C10.889 -0.129779 15.3689 -0.129779 19.7579 0.595879L20.2457 0.676523C21.4333 0.872878 22.3904 1.74938 22.6824 2.9081L23.8248 7.44105ZM3.50721 9.56603C3.21793 9.90054 3.0483 10.3333 3.0483 10.7956V17.9999H4.20344C4.58527 17.9999 4.93432 17.7859 5.10508 17.4471L5.83452 15.9999H20.4234L21.1528 17.4471C21.3236 17.7859 21.6726 17.9999 22.0545 17.9999H23.2096V10.0731C23.2096 9.8408 23.1341 9.62094 23.0022 9.44128L21.5641 10.1546C21.0779 10.3957 20.7062 10.8216 20.5338 11.3348C20.0507 12.7726 18.6923 13.7499 17.1612 13.7499H9.09669C7.5656 13.7499 6.20722 12.7726 5.7241 11.3348C5.55167 10.8216 5.17996 10.3957 4.69381 10.1546L3.50721 9.56603ZM5.22187 8.73945L5.37004 8.81294C6.21642 9.23275 6.8599 9.9715 7.1586 10.8604C7.43696 11.6888 8.21976 12.2499 9.09669 12.2499H17.1612C18.0381 12.2499 18.8209 11.6888 19.0993 10.8604C19.398 9.9715 20.0415 9.23275 20.8879 8.81294L21.2468 8.63489C19.8266 8.21446 18.35 7.99989 16.8631 7.99989H10.6222C8.79502 7.99989 6.97796 8.24912 5.22187 8.73945ZM4.74443 6.51585L5.5314 3.39317C5.62874 3.00693 5.94776 2.71476 6.34364 2.64931L6.8314 2.56867C11.001 1.87929 15.2569 1.87929 19.4265 2.56867L19.9143 2.64931C20.3101 2.71476 20.6292 3.00693 20.7265 3.39317L21.5156 6.52452L19.5577 6.14516C18.0935 5.86147 16.6051 5.71864 15.1132 5.71864H10.9289C8.87166 5.71864 6.82278 5.97894 4.83189 6.49325L4.74443 6.51585Z" fill="#150C00" fill-opacity="0.5"/>
</svg>
