<svg width="16" height="26" viewBox="0 0 16 26" fill="none" xmlns="http://www.w3.org/2000/svg">
<path fill-rule="evenodd" clip-rule="evenodd" d="M2 1C2 0.447715 1.55228 0 1 0C0.447715 0 0 0.447715 0 1V7C0 8.86384 1.27477 10.4299 3 10.874V25C3 25.5523 3.44772 26 4 26C4.55228 26 5 25.5523 5 25V10.874C6.72523 10.4299 8 8.86384 8 7V1C8 0.447715 7.55228 0 7 0C6.44772 0 6 0.447715 6 1V7C6 7.74028 5.5978 8.38663 5 8.73244V1C5 0.447715 4.55228 0 4 0C3.44772 0 3 0.447716 3 1V8.73244C2.4022 8.38663 2 7.74028 2 7V1ZM13.7655 0C12.2526 0 10.9764 1.12661 10.7887 2.6279L9.14818 15.7519C8.99897 16.9456 9.92975 18 11.1327 18H14V25C14 25.5523 14.4477 26 15 26C15.5522 26 16 25.5523 16 25V2C16 0.895431 15.1045 0 14 0H13.7655Z" fill="#150C00"/>
</svg>
