<svg width="26" height="21" viewBox="0 0 26 21" fill="none" xmlns="http://www.w3.org/2000/svg">
<path d="M23.3333 6.08698C21.6417 6.08698 20.6967 7.84002 21.0817 9.14263L16.94 13.4765C16.59 13.367 16.0767 13.367 15.7267 13.4765L12.7517 10.3722C13.1483 9.06958 12.2033 7.30437 10.5 7.30437C8.80833 7.30437 7.85167 9.05741 8.24833 10.3722L2.92833 15.9113C1.68 15.5096 0 16.4957 0 18.2609C0 19.6 1.05 20.6957 2.33333 20.6957C4.025 20.6957 4.97 18.9426 4.585 17.64L9.89333 12.0887C10.2433 12.1983 10.7567 12.1983 11.1067 12.0887L14.0817 15.1931C13.685 16.4957 14.63 18.2609 16.3333 18.2609C18.025 18.2609 18.9817 16.5078 18.585 15.1931L22.7383 10.8713C23.9867 11.2731 25.6667 10.287 25.6667 8.52176C25.6667 7.18263 24.6167 6.08698 23.3333 6.08698Z" fill="#150C00"/>
<path d="M16.3333 7.30435L17.4299 4.78435L19.8333 3.65217L17.4299 2.52L16.3333 0L15.2599 2.52L12.8333 3.65217L15.2599 4.78435L16.3333 7.30435Z" fill="#150C00"/>
<path d="M2.91667 9.73913L3.5 7.30435L5.83333 6.69565L3.5 6.08696L2.91667 3.65218L2.33333 6.08696L0 6.69565L2.33333 7.30435L2.91667 9.73913Z" fill="#150C00"/>
</svg>
