<svg width="24" height="24" viewBox="0 0 24 24" fill="none" xmlns="http://www.w3.org/2000/svg">
<path d="M23 13L12.7372 1.80416C12.3408 1.3718 11.6592 1.3718 11.2629 1.80416L1.00002 13H4.00002V23H9.00002V18C9.00002 16.8954 9.89545 16 11 16H13C14.1046 16 15 16.8954 15 18V23H20V13H23Z" fill="#150C00"/>
<path fill-rule="evenodd" clip-rule="evenodd" d="M10.5257 1.12844C11.3184 0.263706 12.6817 0.263706 13.4743 1.12844L23.7372 12.3243C24.0051 12.6166 24.0751 13.0396 23.9154 13.4026C23.7557 13.7656 23.3966 14 23 14H21V23C21 23.5523 20.5523 24 20 24H15C14.4477 24 14 23.5523 14 23V18C14 17.4477 13.5523 17 13 17H11C10.4477 17 10 17.4477 10 18V23C10 23.5523 9.55231 24 9.00002 24H4.00002C3.44774 24 3.00002 23.5523 3.00002 23V14H1.00002C0.603453 14 0.244355 13.7656 0.0846719 13.4026C-0.0750109 13.0396 -0.00510383 12.6166 0.262867 12.3243L10.5257 1.12844ZM3.27326 12H4.00002C4.5523 12 5.00002 12.4477 5.00002 13V22H8.00002V18C8.00002 16.3431 9.34317 15 11 15H13C14.6569 15 16 16.3431 16 18V22H19V13C19 12.4477 19.4477 12 20 12H20.7268L12 2.47989L3.27326 12Z" fill="#150C00"/>
</svg>
