<svg width="22" height="28" viewBox="0 0 22 28" fill="none" xmlns="http://www.w3.org/2000/svg">
<path d="M10.633 0.19989C10.1876 0.19989 9.82657 0.558062 9.82657 0.99989C9.82657 1.44172 10.1876 1.79989 10.633 1.79989H10.6611C11.5921 1.79989 12.3468 2.54853 12.3468 3.47202C12.3468 4.10538 11.986 4.68438 11.415 4.96763L10.7764 5.28435C10.378 5.48194 10.2166 5.96247 10.4157 6.35766C10.6149 6.75284 11.0993 6.91302 11.4977 6.71543L12.1363 6.39871C13.2538 5.84444 13.9597 4.71142 13.9597 3.47202C13.9597 1.66487 12.4829 0.19989 10.6611 0.19989H10.633Z" fill="#150C00" fill-opacity="0.5"/>
<path d="M8.41524 5.87088C8.41524 5.00322 9.12429 4.29984 9.99895 4.29984H10.1289C10.5743 4.29984 10.9354 3.94167 10.9354 3.49984C10.9354 3.05801 10.5743 2.69984 10.1289 2.69984H9.99895C8.23351 2.69984 6.80233 4.11957 6.80233 5.87088C6.80233 6.82609 7.23639 7.7304 7.98389 8.33254L9.27542 9.37291C9.7771 9.77703 10.0705 10.3727 10.0937 10.9998H11.7073C11.6836 9.8951 11.1744 8.8415 10.2922 8.13085L9.00062 7.09047C8.63028 6.79215 8.41524 6.34413 8.41524 5.87088Z" fill="#150C00" fill-opacity="0.5"/>
<path fill-rule="evenodd" clip-rule="evenodd" d="M3.02681 11.9999C2.50909 11.9999 2.10225 12.4394 2.14622 12.9511L2.70986 19.5096C2.97669 22.6144 5.59511 24.9999 8.73638 24.9999H11.5161C14.4897 24.9999 16.995 22.8623 17.4802 19.9999H18.1932C19.8634 19.9999 21.2174 18.6567 21.2174 16.9999V14.9999C21.2174 13.343 19.8634 11.9999 18.1932 11.9999H3.02681ZM4.2598 13.9999L4.7187 19.3397C4.89659 21.4096 6.6422 22.9999 8.73638 22.9999H11.5161C13.5873 22.9999 15.3177 21.4444 15.5274 19.4075L15.5726 18.8926L15.9966 13.9999H4.2598ZM17.6562 18.1999L18.0375 13.7999H18.1932C18.8612 13.7999 19.4028 14.3371 19.4028 14.9999V16.9999C19.4028 17.6626 18.8612 18.1999 18.1932 18.1999H17.6562Z" fill="#150C00" fill-opacity="0.5"/>
<path d="M0.382053 24.2566C0.795874 23.8871 1.43326 23.9204 1.8057 24.3309L2.71921 25.3378C3.10156 25.7592 3.64625 25.9999 4.21779 25.9999H16.0402C16.6117 25.9999 17.1564 25.7592 17.5388 25.3378L18.4523 24.3309C18.8247 23.9204 19.4621 23.8871 19.8759 24.2566C20.2898 24.6261 20.3233 25.2583 19.9509 25.6689L19.0373 26.6757C18.2727 27.5186 17.1833 27.9999 16.0402 27.9999H4.21779C3.0747 27.9999 1.98532 27.5186 1.22064 26.6757L0.307125 25.6689C-0.0653139 25.2583 -0.0317672 24.6261 0.382053 24.2566Z" fill="#150C00" fill-opacity="0.5"/>
</svg>
