<svg width="22" height="22" viewBox="0 0 22 22" fill="none" xmlns="http://www.w3.org/2000/svg">
<path d="M0 1.1C0 0.808262 0.115892 0.528472 0.322183 0.322183C0.528472 0.115892 0.808262 0 1.1 0H20.9C21.1917 0 21.4715 0.115892 21.6778 0.322183C21.8841 0.528472 22 0.808262 22 1.1C22 1.39174 21.8841 1.67153 21.6778 1.87782C21.4715 2.08411 21.1917 2.2 20.9 2.2H1.1C0.808262 2.2 0.528472 2.08411 0.322183 1.87782C0.115892 1.67153 0 1.39174 0 1.1ZM20.9 6.6H1.1C0.808262 6.6 0.528472 6.71589 0.322183 6.92218C0.115892 7.12847 0 7.40826 0 7.7C0 7.99174 0.115892 8.27153 0.322183 8.47782C0.528472 8.68411 0.808262 8.8 1.1 8.8H20.9C21.1917 8.8 21.4715 8.68411 21.6778 8.47782C21.8841 8.27153 22 7.99174 22 7.7C22 7.40826 21.8841 7.12847 21.6778 6.92218C21.4715 6.71589 21.1917 6.6 20.9 6.6ZM13.2 13.2H1.1C0.808262 13.2 0.528472 13.3159 0.322183 13.5222C0.115892 13.7285 0 14.0083 0 14.3C0 14.5917 0.115892 14.8715 0.322183 15.0778C0.528472 15.2841 0.808262 15.4 1.1 15.4H13.2C13.4917 15.4 13.7715 15.2841 13.9778 15.0778C14.1841 14.8715 14.3 14.5917 14.3 14.3C14.3 14.0083 14.1841 13.7285 13.9778 13.5222C13.7715 13.3159 13.4917 13.2 13.2 13.2ZM13.2 19.8H1.1C0.808262 19.8 0.528472 19.9159 0.322183 20.1222C0.115892 20.3285 0 20.6083 0 20.9C0 21.1917 0.115892 21.4715 0.322183 21.6778C0.528472 21.8841 0.808262 22 1.1 22H13.2C13.4917 22 13.7715 21.8841 13.9778 21.6778C14.1841 21.4715 14.3 21.1917 14.3 20.9C14.3 20.6083 14.1841 20.3285 13.9778 20.1222C13.7715 19.9159 13.4917 19.8 13.2 19.8ZM17.16 13.42C16.9966 13.2974 16.8022 13.2228 16.5988 13.2044C16.3953 13.1861 16.1908 13.2248 16.0081 13.3161C15.8253 13.4075 15.6717 13.5479 15.5643 13.7217C15.4569 13.8955 15.4 14.0957 15.4 14.3V20.9C15.4006 21.1031 15.4575 21.3021 15.5643 21.4749C15.671 21.6477 15.8236 21.7876 16.005 21.879C16.1876 21.9717 16.3925 22.0115 16.5966 21.994C16.8007 21.9765 16.9958 21.9024 17.16 21.78L21.56 18.48C21.6966 18.3775 21.8075 18.2447 21.8839 18.0919C21.9602 17.9392 22 17.7708 22 17.6C22 17.4292 21.9602 17.2608 21.8839 17.1081C21.8075 16.9553 21.6966 16.8225 21.56 16.72L17.16 13.42Z" fill="#150C00"/>
</svg>
