<svg width="21" height="28" viewBox="0 0 21 28" fill="none" xmlns="http://www.w3.org/2000/svg">
<path fill-rule="evenodd" clip-rule="evenodd" d="M10.129 12.9999C11.7992 12.9999 13.1532 11.6567 13.1532 9.99988C13.1532 8.34302 11.7992 6.99988 10.129 6.99988C8.45877 6.99988 7.10479 8.34302 7.10479 9.99988C7.10479 11.6567 8.45877 12.9999 10.129 12.9999ZM10.129 14.9999C12.9127 14.9999 15.1693 12.7613 15.1693 9.99988C15.1693 7.23845 12.9127 4.99988 10.129 4.99988C7.34529 4.99988 5.08866 7.23845 5.08866 9.99988C5.08866 12.7613 7.34529 14.9999 10.129 14.9999Z" fill="#150C00" fill-opacity="0.5"/>
<path fill-rule="evenodd" clip-rule="evenodd" d="M14.6536 19.6201C16.6487 16.6201 18.1935 13.2193 18.1935 9.99988C18.1935 5.5816 14.5829 1.99988 10.129 1.99988C5.67508 1.99988 2.06447 5.5816 2.06447 9.99988C2.06447 13.2193 3.60932 16.6201 5.60434 19.6201C7.18459 21.9965 8.94486 23.9697 10.129 25.1931C11.3131 23.9697 13.0734 21.9965 14.6536 19.6201ZM10.7856 27.3797C13.0228 25.1982 20.2096 17.5991 20.2096 9.99988C20.2096 4.47703 15.6964 -0.00012207 10.129 -0.00012207C4.5616 -0.00012207 0.0483398 4.47703 0.0483398 9.99988C0.0483398 17.5991 7.23516 25.1982 9.47237 27.3797C9.8402 27.7384 10.4178 27.7384 10.7856 27.3797Z" fill="#150C00" fill-opacity="0.5"/>
</svg>
