<svg width="24" height="24" viewBox="0 0 24 24" fill="none" xmlns="http://www.w3.org/2000/svg">
<path fill-rule="evenodd" clip-rule="evenodd" d="M0 3C0 1.34315 1.34315 0 3 0H21C22.6569 0 24 1.34315 24 3V15C24 16.6569 22.6569 18 21 18H10.6667L5.72414 23.1897C5.10158 23.8433 4 23.4027 4 22.5V18H2C0.895431 18 0 17.1046 0 16V3ZM6 5C5.44772 5 5 5.44772 5 6C5 6.55228 5.44772 7 6 7H18C18.5523 7 19 6.55228 19 6C19 5.44772 18.5523 5 18 5H6ZM5 10C5 9.44771 5.44772 9 6 9H18C18.5523 9 19 9.44771 19 10C19 10.5523 18.5523 11 18 11H6C5.93096 11 5.86356 10.993 5.79847 10.9797C5.34278 10.8864 5 10.4832 5 10Z" fill="#150C00"/>
</svg>
