<svg width="32" height="32" viewBox="0 0 32 32" fill="none" xmlns="http://www.w3.org/2000/svg">
<path d="M9 14C9 11.3976 9.66511 9.40849 10.8138 8.08417C11.9448 6.78027 13.6485 6 16 6C18.3515 6 20.0552 6.78027 21.1862 8.08417C22.3349 9.40849 23 11.3976 23 14V19.4862C23 20.7812 23.6939 21.9768 24.8182 22.6193C25.4762 22.9953 25.2094 24 24.4515 24H7.54845C6.7906 24 6.52379 22.9953 7.18179 22.6193C8.30613 21.9768 9 20.7812 9 19.4862V14Z" stroke="#150C00" stroke-width="2"/>
<path d="M17.7324 27C17.3866 27.5978 16.7403 28 16 28C15.2597 28 14.6134 27.5978 14.2676 27H17.7324Z" stroke="#150C00" stroke-width="2"/>
<path d="M16 4C14.8954 4 14 4.89543 14 6L18 6C18 4.89543 17.1046 4 16 4Z" fill="#150C00"/>
</svg>
