<svg width="29" height="26" viewBox="0 0 29 26" fill="none" xmlns="http://www.w3.org/2000/svg">
<path d="M16 2C9.92487 2 5 6.92487 5 13C5 13.1917 5.00489 13.3821 5.01455 13.5712L6.29289 12.2929C6.68342 11.9024 7.31658 11.9024 7.70711 12.2929C8.09763 12.6834 8.09763 13.3166 7.70711 13.7071L4.70711 16.7071C4.31658 17.0976 3.68342 17.0976 3.29289 16.7071L0.292893 13.7071C-0.0976311 13.3166 -0.0976311 12.6834 0.292893 12.2929C0.683417 11.9024 1.31658 11.9024 1.70711 12.2929L3.01359 13.5994C3.00456 13.4007 3 13.2008 3 13C3 5.8203 8.8203 0 16 0C23.1797 0 29 5.8203 29 13C29 20.1797 23.1797 26 16 26C11.6496 26 7.7985 23.8621 5.44032 20.584C5.1178 20.1356 5.21979 19.5107 5.66813 19.1882C6.11646 18.8657 6.74135 18.9677 7.06387 19.416C9.0624 22.1942 12.3203 24 16 24C22.0751 24 27 19.0751 27 13C27 6.92487 22.0751 2 16 2Z" fill="#150C00"/>
</svg>
