<svg width="28" height="28" viewBox="0 0 28 28" fill="none" xmlns="http://www.w3.org/2000/svg">
<path fill-rule="evenodd" clip-rule="evenodd" d="M19 14C19 16.7614 16.7614 19 14 19C11.2386 19 9 16.7614 9 14C9 11.2386 11.2386 9 14 9C16.7614 9 19 11.2386 19 14ZM17 14C17 15.6569 15.6569 17 14 17C12.3431 17 11 15.6569 11 14C11 12.3431 12.3431 11 14 11C15.6569 11 17 12.3431 17 14Z" fill="#150C00"/>
<path fill-rule="evenodd" clip-rule="evenodd" d="M8.63655 4.39391C9.3759 3.98021 10.1679 3.6494 11 3.41404V2C11 1.10238 11.5913 0.342874 12.4057 0.0897837C12.9289 0.0304707 13.4609 0 14 0C14.5391 0 15.0711 0.030472 15.5943 0.0897848C16.4087 0.342876 17 1.10238 17 2V3.414C17.8421 3.65218 18.6432 3.98813 19.3902 4.40882L20.3848 3.41421C21.0229 2.77608 21.985 2.65932 22.7417 3.06392C23.1457 3.38734 23.5315 3.7327 23.8972 4.09819L23.9018 4.10283C24.2893 4.49045 24.6541 4.9007 24.9942 5.3314C25.379 6.08313 25.2568 7.02752 24.6274 7.65685L23.6211 8.66321C24.0278 9.39493 24.3535 10.1779 24.586 11H26C26.8976 11 27.6571 11.5913 27.9102 12.4057C27.9695 12.9289 28 13.4609 28 14C28 14.5391 27.9695 15.0711 27.9102 15.5943C27.6571 16.4087 26.8976 17 26 17H24.586C24.3506 17.8321 24.0198 18.6241 23.6061 19.3635L24.6274 20.3848C25.2276 20.985 25.3666 21.8718 25.0443 22.6047C24.3344 23.5145 23.5145 24.3344 22.6047 25.0443C21.8718 25.3666 20.985 25.2276 20.3848 24.6274L19.3634 23.6061C18.6241 24.0198 17.8321 24.3506 17 24.5859V26C17 26.8976 16.4087 27.6571 15.5943 27.9102C15.0711 27.9695 14.5391 28 14 28C13.4609 28 12.9289 27.9695 12.4057 27.9102C11.5913 27.6571 11 26.8976 11 26V24.5859C10.1779 24.3534 9.39501 24.0277 8.66333 23.6209L7.65685 24.6274C7.02752 25.2568 6.08312 25.379 5.33139 24.9942C4.90113 24.6544 4.49127 24.29 4.10399 23.903L4.09703 23.896C3.73198 23.5307 3.387 23.1453 3.06392 22.7417C2.65932 21.985 2.77608 21.0229 3.41421 20.3848L4.40894 19.39C3.98827 18.6431 3.65233 17.8421 3.41416 17H2C1.10238 17 0.342874 16.4087 0.0897836 15.5943C0.0304706 15.0711 0 14.5391 0 14C0 13.4609 0.030472 12.9289 0.0897848 12.4057C0.342877 11.5913 1.10238 11 2 11H3.41413C3.64947 10.1679 3.98027 9.37593 4.39395 8.63659L3.41421 7.65685C2.73077 6.97341 2.64536 5.91838 3.158 5.14207C3.26238 5.01446 3.36897 4.88873 3.47771 4.76494L4.76494 3.4777C4.88873 3.36897 5.01446 3.26238 5.14207 3.158C5.91838 2.64536 6.97341 2.73077 7.65685 3.41421L8.63655 4.39391ZM15 5.05493V2H13L13.0001 5.05489C12.3066 5.13154 11.6368 5.28703 11 5.51212C10.6989 5.61854 10.4052 5.74052 10.1198 5.87711C9.76171 6.04846 9.41676 6.24278 9.08681 6.45817C8.84359 6.61694 8.60853 6.78717 8.38238 6.96807L6.24264 4.82843L4.82843 6.24264L6.96817 8.38229C5.93245 9.67705 5.2469 11.2641 5.05501 13L2 13V15L5.05501 15C5.2469 16.7358 5.93249 18.3229 6.96825 19.6177L6.98664 19.6408L4.82843 21.799L6.24264 23.2132L6.98374 22.4721L6.9611 22.4533L8.38248 21.0319C9.67723 22.0676 11.2643 22.7531 13.0001 22.945L13 26H15V22.9451C16.0213 22.8322 16.9912 22.5483 17.8802 22.1229C18.4371 21.8564 18.9623 21.5343 19.4486 21.1639C19.5055 21.1205 19.5619 21.0765 19.6177 21.0319L21.799 23.2132L23.2132 21.799L21.0319 19.6177C21.4582 19.0847 21.8252 18.5022 22.1229 17.8802C22.2595 17.5948 22.3815 17.3011 22.4879 17C22.713 16.3632 22.8684 15.6935 22.9451 15H26V13H22.9451C22.8684 12.3065 22.713 11.6368 22.4879 11C22.385 10.7088 22.2676 10.4245 22.1364 10.1479C21.8406 9.5243 21.4752 8.9402 21.0504 8.40548L21.032 8.38235L22.4534 6.96098L22.4722 6.98361L23.2132 6.24264L21.799 4.82843L19.6408 6.98664C19.1096 6.55886 18.5288 6.19019 17.9084 5.89063C17.6141 5.74855 17.311 5.62197 17 5.51205C16.3632 5.28696 15.6935 5.13159 15 5.05493Z" fill="#150C00"/>
</svg>
