<svg width="33" height="32" viewBox="0 0 33 32" fill="none" xmlns="http://www.w3.org/2000/svg">
<path fill-rule="evenodd" clip-rule="evenodd" d="M16.1291 18.4999C17.5209 18.4999 18.6492 17.3806 18.6492 15.9999C18.6492 14.6192 17.5209 13.4999 16.1291 13.4999C14.7372 13.4999 13.6089 14.6192 13.6089 15.9999C13.6089 17.3806 14.7372 18.4999 16.1291 18.4999ZM16.1291 20.4999C18.6344 20.4999 20.6654 18.4852 20.6654 15.9999C20.6654 13.5146 18.6344 11.4999 16.1291 11.4999C13.6237 11.4999 11.5928 13.5146 11.5928 15.9999C11.5928 18.4852 13.6237 20.4999 16.1291 20.4999Z" fill="#FF8933"/>
<path fill-rule="evenodd" clip-rule="evenodd" d="M16.1291 25.1022C21.1967 25.1022 25.3048 21.0269 25.3048 15.9999C25.3048 10.9728 21.1967 6.89758 16.1291 6.89758C11.0615 6.89758 6.95338 10.9728 6.95338 15.9999C6.95338 21.0269 11.0615 25.1022 16.1291 25.1022ZM16.1291 27.1022C22.3102 27.1022 27.3209 22.1315 27.3209 15.9999C27.3209 9.86825 22.3102 4.89758 16.1291 4.89758C9.94801 4.89758 4.93726 9.86825 4.93726 15.9999C4.93726 22.1315 9.94801 27.1022 16.1291 27.1022Z" fill="#FF8933"/>
</svg>
